<svg width="149" height="40" viewBox="0 0 149 40" fill="none" xmlns="http://www.w3.org/2000/svg">
<g opacity="0.9">
<path d="M49.0502 12.477H53.3162L61.7942 24.438V12.477H65.5472V30H61.2812L52.8032 17.85V30H49.0502V12.477ZM69.3265 12.477H73.5385V30H69.3265V12.477ZM85.0648 30.27C84.2728 30.27 83.5618 30.234 82.9318 30.162C82.3198 30.09 81.6448 29.955 80.9068 29.757C80.0788 29.541 79.3948 29.262 78.8548 28.92C78.3148 28.56 77.8648 28.065 77.5048 27.435C77.1268 26.805 76.9378 26.058 76.9378 25.194V17.499C76.9378 13.971 79.6468 12.207 85.0648 12.207C86.4508 12.207 88.3048 12.405 90.6268 12.801V15.96C88.5388 15.456 86.7028 15.204 85.1188 15.204C84.4528 15.204 83.9308 15.222 83.5528 15.258C83.1928 15.294 82.8148 15.384 82.4188 15.528C81.5728 15.816 81.1498 16.455 81.1498 17.445V24.897C81.1498 26.481 82.5988 27.273 85.4968 27.273C86.7388 27.273 88.4848 27.012 90.7348 26.49V29.676C88.8088 30.072 86.9188 30.27 85.0648 30.27ZM101.337 30.27C100.365 30.27 99.4651 30.207 98.6371 30.081C97.8271 29.955 96.9811 29.739 96.0991 29.433C95.1451 29.109 94.3981 28.587 93.8581 27.867C93.3181 27.129 93.0481 26.238 93.0481 25.194V17.526C93.0481 16.662 93.2371 15.888 93.6151 15.204C94.0111 14.52 94.5151 13.98 95.1271 13.584C95.6671 13.242 96.3331 12.954 97.1251 12.72C97.9171 12.486 98.6551 12.342 99.3391 12.288C99.9691 12.234 100.635 12.207 101.337 12.207C102.165 12.207 102.885 12.243 103.497 12.315C104.109 12.369 104.793 12.495 105.549 12.693C106.413 12.945 107.124 13.251 107.682 13.611C108.24 13.971 108.708 14.475 109.086 15.123C109.482 15.789 109.68 16.59 109.68 17.526V25.194C109.68 26.166 109.419 27.003 108.897 27.705C108.393 28.407 107.691 28.938 106.791 29.298C105.171 29.946 103.353 30.27 101.337 30.27ZM101.391 27.273C101.985 27.273 102.48 27.255 102.876 27.219C103.29 27.165 103.713 27.075 104.145 26.949C104.577 26.823 104.901 26.616 105.117 26.328C105.351 26.022 105.468 25.644 105.468 25.194V17.499C105.468 16.671 105.135 16.086 104.469 15.744C103.803 15.384 102.768 15.204 101.364 15.204C99.9601 15.204 98.9251 15.375 98.2591 15.717C97.5931 16.059 97.2601 16.653 97.2601 17.499V25.194C97.2601 25.644 97.3771 26.022 97.6111 26.328C97.8451 26.616 98.1871 26.823 98.6371 26.949C99.0691 27.075 99.4831 27.165 99.8791 27.219C100.293 27.255 100.797 27.273 101.391 27.273ZM113.07 12.477H117.336L125.814 24.438V12.477H129.567V30H125.301L116.823 17.85V30H113.07V12.477ZM139.016 30.27C137.342 30.27 135.272 30.108 132.806 29.784V26.571C135.866 27.039 137.954 27.273 139.07 27.273C141.41 27.273 142.58 26.67 142.58 25.464V24.33C142.58 23.754 142.409 23.313 142.067 23.007C141.743 22.701 141.149 22.548 140.285 22.548H138.233C134.381 22.548 132.455 21.018 132.455 17.958V16.662C132.455 15.132 133.094 14.007 134.372 13.287C135.65 12.567 137.675 12.207 140.447 12.207C141.887 12.207 143.714 12.324 145.928 12.558V15.69C143.21 15.366 141.338 15.204 140.312 15.204C138.89 15.204 137.936 15.321 137.45 15.555C136.928 15.807 136.667 16.203 136.667 16.743V17.985C136.667 18.903 137.441 19.362 138.989 19.362H141.095C143.093 19.362 144.542 19.731 145.442 20.469C146.342 21.207 146.792 22.332 146.792 23.844V25.005C146.792 27.093 146.045 28.506 144.551 29.244C143.831 29.622 143.03 29.883 142.148 30.027C141.284 30.189 140.24 30.27 139.016 30.27Z" fill="white"/>
<mask id="mask0_177_226" style="mask-type:alpha" maskUnits="userSpaceOnUse" x="0" y="2" width="36" height="36">
<circle cx="17.5455" cy="20.419" r="17.5455" fill="white"/>
</mask>
<g mask="url(#mask0_177_226)">
<circle cx="9.19596" cy="-0.242882" r="14.5568" transform="rotate(-22 9.19596 -0.242882)" fill="white"/>
<circle cx="25.8952" cy="41.0794" r="14.5568" transform="rotate(-22 25.8952 41.0794)" fill="white"/>
<circle cx="-3.11654" cy="28.7664" r="14.5568" transform="rotate(-22 -3.11654 28.7664)" fill="white"/>
<circle cx="37.8249" cy="11.1248" r="14.5568" transform="rotate(-22 37.8249 11.1248)" fill="white"/>
</g>
</g>
</svg>
